<svg id="Capa_1" enable-background="new 0 0 512 512" height="512" viewBox="0 0 512 512" width="512" xmlns="http://www.w3.org/2000/svg"><g><path d="m144 249h-32c-8.284 0-15 6.716-15 15s6.716 15 15 15h32c8.284 0 15-6.716 15-15s-6.716-15-15-15z"/><path d="m144 313h-32c-8.284 0-15 6.716-15 15s6.716 15 15 15h32c8.284 0 15-6.716 15-15s-6.716-15-15-15z"/><path d="m144 377h-32c-8.284 0-15 6.716-15 15s6.716 15 15 15h32c8.284 0 15-6.716 15-15s-6.716-15-15-15z"/><path d="m272 249h-32c-8.284 0-15 6.716-15 15s6.716 15 15 15h32c8.284 0 15-6.716 15-15s-6.716-15-15-15z"/><path d="m272 313h-32c-8.284 0-15 6.716-15 15s6.716 15 15 15h32c8.284 0 15-6.716 15-15s-6.716-15-15-15z"/><path d="m272 377h-32c-8.284 0-15 6.716-15 15s6.716 15 15 15h32c8.284 0 15-6.716 15-15s-6.716-15-15-15z"/><path d="m400 249h-32c-8.284 0-15 6.716-15 15s6.716 15 15 15h32c8.284 0 15-6.716 15-15s-6.716-15-15-15z"/><path d="m400 313h-32c-8.284 0-15 6.716-15 15s6.716 15 15 15h32c8.284 0 15-6.716 15-15s-6.716-15-15-15z"/><path d="m400 377h-32c-8.284 0-15 6.716-15 15s6.716 15 15 15h32c8.284 0 15-6.716 15-15s-6.716-15-15-15z"/><path d="m467 65h-36v-25c0-8.284-6.716-15-15-15s-15 6.716-15 15v25h-130v-25c0-8.284-6.716-15-15-15s-15 6.716-15 15v25h-130v-25c0-8.284-6.716-15-15-15s-15 6.716-15 15v25h-36c-24.813 0-45 20.187-45 45v332c0 24.813 20.187 45 45 45h422c24.813 0 45-20.187 45-45 0-9.682 0-323.575 0-332 0-24.813-20.187-45-45-45zm-437 45c0-8.271 6.729-15 15-15h36v25c0 8.284 6.716 15 15 15s15-6.716 15-15v-25h130v25c0 8.284 6.716 15 15 15s15-6.716 15-15v-25h130v25c0 8.284 6.716 15 15 15s15-6.716 15-15v-25h36c8.271 0 15 6.729 15 15v59h-452zm437 347h-422c-8.271 0-15-6.729-15-15v-243h452v243c0 8.271-6.729 15-15 15z"/></g></svg>